# xmcd CD database file
#
# Track frame offsets:
#	150
#	15865
#	40341
#	61217
#	83065
#	106910
#	121749
#	143931
#	169719
#	190417
#	211983
#	234821
#	265050
#
# Disc length: 3816 seconds
#
# Revision: 0
# Processed by: cddbd v1.5.1PL2 Copyright (c) Steve Scherf et al.
# Submitted via: Feurio! 1.68 - http://www.feurio.com
#
DISCID=9f0ee60d
DTITLE=Manic Peter - When The Love Has Gone
DYEAR=1900
DGENRE=Blues
TTITLE0=Rub Me Off
TTITLE1=Three Eleven Twelve Seven Seven
TTITLE2=The Orginal Rolling Stone
TTITLE3=I Wanna Ramble
TTITLE4=My Love Will Never Fade Away
TTITLE5=Sugar Coated Love
TTITLE6=When The Love Has Gone
TTITLE7=Cold Cold Heart
TTITLE8=Tip On In
TTITLE9=Unseen Eye
TTITLE10=Linda Lou
TTITLE11=Crying About You
TTITLE12=Man In The Mirror
EXTD=
EXTT0=
EXTT1=
EXTT2=
EXTT3=
EXTT4=
EXTT5=
EXTT6=
EXTT7=
EXTT8=
EXTT9=
EXTT10=
EXTT11=
EXTT12=
PLAYORDER=
